<svg width="74" height="23" viewBox="0 0 74 23" fill="none" xmlns="http://www.w3.org/2000/svg">
<path d="M38.6471 5.85058C38.6471 6.64281 37.9825 7.28073 37.1578 7.28073C36.333 7.28073 35.6689 6.64281 35.6689 5.85058C35.6689 5.05835 36.3103 4.42043 37.1578 4.42043C38.0059 4.44241 38.6471 5.08055 38.6471 5.85058V5.85058ZM32.5075 8.73331V9.08546C32.5075 9.08546 31.7976 8.20485 30.2856 8.20485C27.7888 8.20485 25.8413 10.0313 25.8413 12.5617C25.8413 15.0703 27.7659 16.9185 30.2856 16.9185C31.8205 16.9185 32.5075 16.0164 32.5075 16.0164V16.3903C32.5075 16.5664 32.6453 16.6981 32.8284 16.6981H34.6837V8.42424H32.8284C32.6453 8.4249 32.5075 8.57921 32.5075 8.73331V8.73331ZM32.5075 14.036C32.1642 14.5203 31.4768 14.9384 30.6522 14.9384C29.1862 14.9384 28.0634 14.0582 28.0634 12.5617C28.0634 11.0654 29.1862 10.1852 30.6522 10.1852C31.4541 10.1852 32.1871 10.6253 32.5075 11.0874V14.036ZM36.0584 8.4249H38.2574V16.6987H36.0584V8.4249V8.4249ZM68.9088 8.20464C67.3968 8.20464 66.6865 9.08524 66.6865 9.08524V4.44241H64.4874V16.6987H66.3432C66.5265 16.6987 66.6636 16.5446 66.6636 16.3905V16.0166C66.6636 16.0166 67.3739 16.9188 68.8855 16.9188C71.3827 16.9188 73.3298 15.0709 73.3298 12.5624C73.3298 10.0538 71.3827 8.20464 68.9088 8.20464V8.20464ZM68.5422 14.9162C67.6943 14.9162 67.0302 14.4985 66.6865 14.014V11.0654C67.0302 10.6253 67.7632 10.1632 68.5422 10.1632C70.0082 10.1632 71.1307 11.0434 71.1307 12.5397C71.1307 14.036 70.0085 14.9162 68.5422 14.9162ZM63.3423 11.7919V16.7207H61.1428V12.0337C61.1428 10.6697 60.6846 10.1193 59.4483 10.1193C58.7842 10.1193 58.0967 10.4494 57.6608 10.9337V16.6989H55.4622V8.42512H57.2026C57.3859 8.42512 57.5235 8.57921 57.5235 8.73331V9.08546C58.1649 8.4471 59.0124 8.20485 59.8598 8.20485C60.8221 8.20485 61.624 8.4693 62.2655 8.99731C63.0441 9.61347 63.3423 10.4055 63.3423 11.7919V11.7919ZM50.1238 8.20464C48.6122 8.20464 47.9019 9.08524 47.9019 9.08524V4.44241H45.7028V16.6987H47.5581C47.7415 16.6987 47.879 16.5446 47.879 16.3905V16.0166C47.879 16.0166 48.5893 16.9188 50.1009 16.9188C52.5981 16.9188 54.5452 15.0709 54.5452 12.5624C54.5681 10.0535 52.621 8.20464 50.1238 8.20464V8.20464ZM49.7572 14.9162C48.9097 14.9162 48.2456 14.4985 47.9019 14.014V11.0654C48.2456 10.6253 48.9786 10.1632 49.7572 10.1632C51.2237 10.1632 52.3459 11.0434 52.3459 12.5397C52.3459 14.036 51.2237 14.9162 49.7572 14.9162ZM43.8013 8.20464C44.4654 8.20464 44.8092 8.31499 44.8092 8.31499V10.2731C44.8092 10.2731 42.9765 9.67897 41.8314 10.9335V16.7205H39.6319V8.4249H41.4876C41.6709 8.4249 41.808 8.57899 41.808 8.73309V9.08524C42.2209 8.62295 43.1143 8.20464 43.8013 8.20464V8.20464ZM20.9622 15.9505C20.8478 15.6864 20.7331 15.4005 20.6187 15.1582C20.4351 14.7623 20.2518 14.388 20.0919 14.036L20.069 14.014C18.4881 10.7132 16.7932 7.36888 15.0061 4.0685L14.9374 3.93616C14.7495 3.59378 14.5663 3.249 14.388 2.90191C14.1587 2.50557 13.9298 2.08791 13.5632 1.69157C12.8302 0.811413 11.7763 0.327148 10.654 0.327148C9.5084 0.327148 8.47765 0.811415 7.72199 1.64739C7.37825 2.04329 7.12606 2.46139 6.8972 2.85773C6.71842 3.2046 6.53525 3.54938 6.34773 3.89198L6.27885 4.02431C4.51486 7.32469 2.79687 10.6693 1.2162 13.9699L1.19309 14.0136C1.03289 14.3662 0.849351 14.7401 0.666041 15.1358C0.551615 15.378 0.437189 15.642 0.322764 15.928C0.0247993 16.742 -0.0669745 17.5123 0.0479089 18.3047C0.299874 19.9551 1.44505 21.3409 3.02595 21.9575C3.62165 22.1997 4.24024 22.3096 4.88148 22.3096C5.06479 22.3096 5.29365 22.2877 5.47719 22.2655C6.23331 22.1775 7.01209 21.9357 7.76821 21.5176C8.70742 21.0114 9.60085 20.2855 10.6087 19.2293C11.6166 20.2855 12.5329 21.0114 13.4492 21.5176C14.2056 21.9357 14.9841 22.1775 15.74 22.2655C15.9233 22.2879 16.1526 22.3096 16.3359 22.3096C16.9774 22.3096 17.6187 22.1997 18.1913 21.9575C19.795 21.3409 20.9173 19.9332 21.1695 18.3047C21.3515 17.5347 21.2599 16.7649 20.9622 15.9505V15.9505ZM10.6309 17.0946C9.39375 15.5983 8.59185 14.1901 8.31723 13.0022C8.2028 12.496 8.17969 12.0559 8.24857 11.6598C8.29411 11.3076 8.43188 10.9994 8.61519 10.7354C9.05047 10.1417 9.78348 9.76734 10.6311 9.76734C11.479 9.76734 12.2349 10.1195 12.6473 10.7354C12.8306 10.9994 12.9679 11.3078 13.0142 11.6598C13.0826 12.0561 13.0597 12.518 12.9453 13.0022C12.6695 14.1681 11.8676 15.5765 10.6309 17.0946ZM19.7708 18.1289C19.6106 19.273 18.8087 20.2635 17.6864 20.7036C17.1367 20.9234 16.5408 20.9896 15.9455 20.9234C15.3729 20.8573 14.7999 20.6812 14.2047 20.3515C13.3799 19.9109 12.5553 19.2293 11.593 18.2168C13.1048 16.4347 14.0211 14.8061 14.3649 13.3542C14.5253 12.6718 14.5484 12.0559 14.4793 11.4835C14.388 10.9335 14.1815 10.4272 13.8609 9.98716C13.1503 8.99665 11.9589 8.4249 10.6307 8.4249C9.30243 8.4249 8.11103 9.01907 7.4009 9.98716C7.08028 10.4272 6.87386 10.9335 6.78232 11.4835C6.69078 12.0559 6.71343 12.6938 6.89674 13.3542C7.24025 14.8061 8.17946 16.4565 9.66837 18.2388C8.72916 19.2511 7.88149 19.9334 7.05671 20.3735C6.46101 20.7036 5.88866 20.8797 5.31607 20.9454C4.69772 21.0116 4.10179 20.9234 3.57497 20.7256C2.45268 20.2855 1.65079 19.295 1.49059 18.1508C1.42194 17.6009 1.46748 17.0509 1.69679 16.4347C1.76521 16.2145 1.8801 15.9946 1.99452 15.7306C2.15495 15.3785 2.3378 15.0041 2.52134 14.6302L2.54445 14.5865C4.1249 11.3076 5.82 7.96305 7.58399 4.70663L7.65264 4.5743C7.83618 4.24457 8.01949 3.89242 8.20258 3.56225C8.38589 3.2101 8.59185 2.87992 8.84404 2.59372C9.32509 2.06615 9.96633 1.77972 10.6767 1.77972C11.387 1.77972 12.0283 2.06615 12.5093 2.59372C12.7615 2.88058 12.9675 3.21076 13.1508 3.56225C13.3343 3.89242 13.5176 4.24457 13.7005 4.5743L13.7694 4.70663C15.5065 7.97658 17.1791 11.2778 18.7863 14.6084V14.6304C18.9698 14.983 19.13 15.3787 19.3133 15.7313C19.4277 15.9949 19.5424 16.2147 19.611 16.4349C19.7939 17.0065 19.8625 17.5569 19.7708 18.1289V18.1289Z" fill="#252A3F"/>
</svg>
