<svg width="92" height="25" viewBox="0 0 92 25" fill="none" xmlns="http://www.w3.org/2000/svg">
<path fill-rule="evenodd" clip-rule="evenodd" d="M54.7534 19.3866C54.1471 19.8243 53.495 20.2187 52.8429 20.5692V18.7302C53.2149 18.5988 53.6348 18.4235 54.0077 18.2925C54.8458 17.942 55.5933 18.8183 54.7526 19.3866H54.7534ZM59.1787 16.3205C59.1787 15.97 59.0854 15.7071 58.9922 15.5761C58.5732 15.0941 55.4983 14.656 52.8429 15.4004V16.7578C54.4733 16.6268 56.383 16.5826 56.8504 17.1509C57.5025 17.8953 56.1047 21.1359 55.4987 22.5371C55.3123 22.9752 55.734 23.1513 56.1521 22.8442C58.2482 21.1801 59.1334 18.1582 59.18 16.5813V16.3213L59.1787 16.3205ZM52.8429 20.5688C47.9512 23.3278 41.615 24.7732 36.1177 24.7732C27.266 24.7732 19.346 21.7079 13.336 16.5838C12.8238 16.1899 13.2428 15.6203 13.8487 15.927C20.3247 19.473 28.3367 21.6186 36.6304 21.6199C41.8484 21.6199 47.4855 20.7006 52.8433 18.7294V20.5688H52.8429ZM52.8429 15.3992C52.1287 15.6074 51.4529 15.9177 50.8392 16.3193C50.3739 16.6255 50.4667 17.0195 50.9306 16.9761C51.4433 16.8884 52.0954 16.8446 52.8412 16.757V15.4012L52.8429 15.3992Z" fill="#252A3F"/>
<path fill-rule="evenodd" clip-rule="evenodd" d="M68.5413 14.7008V12.0732C70.5455 12.0294 70.6383 9.31418 70.6383 7.6939C70.6383 6.59897 70.5917 5.28498 70.2188 4.23387C69.9396 3.35801 69.3807 3.0075 68.5409 2.9641V0.33611C72.4547 0.381151 74.6001 3.57912 74.6001 7.64927C74.5992 11.5912 72.2234 14.6582 68.5426 14.7008H68.5413ZM79.7697 14.4383H77.1143C76.8347 14.3945 76.6016 14.2192 76.6016 13.9564V1.03712C76.6482 0.774244 76.8347 0.5994 77.1143 0.5994H79.6303C79.8629 0.5994 80.0485 0.775472 80.0964 0.993311V2.9641H80.143C80.8879 1.16856 81.9599 0.33611 83.8229 0.33611C84.9877 0.33611 86.1969 0.729202 86.9462 1.86917C87.6449 2.92151 87.6431 4.62901 87.6431 5.89837V14.0002C87.5974 14.2188 87.4105 14.4379 87.1309 14.4379H84.4289C84.1962 14.3941 83.9632 14.2188 83.9632 14.0002V7.03711C83.9632 5.59167 84.1496 3.53367 82.2857 3.53367C81.6336 3.53367 81.0277 3.92758 80.7019 4.58437C80.3295 5.37261 80.2824 6.16125 80.2824 7.0367V13.9559C80.2824 14.2201 80.0511 14.4371 79.768 14.4383H79.7697ZM51.0717 2.87647V1.03712C51.0717 0.774244 51.3048 0.555586 51.5844 0.555586H60.3896C60.6692 0.555586 60.9036 0.772606 60.9036 1.03712V2.614C60.9036 2.87647 60.671 3.22698 60.2515 3.79655L55.6838 9.92716C57.3613 9.88375 59.1773 10.1483 60.715 10.9349C61.0408 11.1519 61.1331 11.418 61.1811 11.6789V13.6058C61.1811 13.8683 60.8552 14.1754 60.529 14.0436C57.7799 12.6862 54.1932 12.5543 51.2111 14.0436C50.8853 14.2188 50.559 13.8679 50.559 13.6058V11.7665C50.559 11.5036 50.559 10.9779 50.8853 10.4963L56.1961 3.3576H51.584C51.3048 3.35678 51.0709 3.1848 51.0709 2.87647H51.0717ZM68.5409 0.33611V2.9641C66.5385 2.9641 66.4452 5.50405 66.4452 7.08092C66.4452 8.7012 66.3991 12.0724 68.4969 12.0732H68.5405V14.7008H68.4947C64.5813 14.7008 62.4386 11.5036 62.4386 7.51865C62.4386 3.48945 64.6275 0.33611 68.4947 0.33611C68.5413 0.334881 68.5426 0.334881 68.5426 0.33611H68.5409ZM42.0335 14.3941V12.0732C42.639 11.9418 43.1517 11.5474 43.5241 10.9349C44.0368 10.0586 44.0368 9.27077 44.0368 8.26347V7.73812C43.3381 7.73812 42.639 7.78153 42.0335 7.91338V5.89878C42.7322 5.81074 43.4309 5.76734 44.0368 5.72352V5.37302C44.0368 4.76004 44.083 4.05943 43.7106 3.53408C43.3843 3.09595 42.7322 2.87688 42.1734 2.87688H42.0335V0.205488H42.5911C43.8953 0.205488 45.5706 0.557633 46.5986 1.47567C47.9028 2.614 47.8095 4.14542 47.8095 5.81074V9.75272C47.8095 10.9361 48.3235 11.4602 48.7896 12.0744C48.9765 12.2914 49.0249 12.5576 48.7896 12.7312C48.2774 13.1693 47.2986 13.9576 46.7397 14.3953C46.5533 14.5267 46.3207 14.5267 46.0881 14.4403C45.2025 13.7397 45.0627 13.433 44.5508 12.7763C43.6644 13.6509 42.9165 14.13 42.0322 14.3941H42.0335ZM42.0335 0.205078V2.87688C41.0547 2.96451 40.2633 3.44604 40.0298 4.40953C39.9836 4.6286 39.7967 4.84725 39.5641 4.89148L36.9549 4.58478C36.7219 4.54097 36.4893 4.40953 36.5825 4.05902C37.1418 1.30123 39.6103 0.334881 42.0322 0.205078H42.0335ZM42.0335 5.89878V7.91297C40.9154 8.21925 40.0298 8.87604 40.0298 10.2756C40.0298 11.3689 40.6353 12.1141 41.6589 12.115C41.7987 12.115 41.8924 12.0716 42.0318 12.0716V14.3924C41.4073 14.5405 40.7657 14.6148 40.1217 14.6136C37.8853 14.6136 36.1151 13.3 36.1151 10.7154C36.1151 8.65738 37.2799 7.25576 38.9569 6.59897C39.8442 6.2026 40.9607 6.03063 42.0322 5.89837L42.0335 5.89878ZM6.81249 14.3941V12.0732C7.41884 11.9418 7.97771 11.5474 8.30397 10.9349C8.86241 10.0586 8.81623 9.27077 8.81623 8.26347V7.73812C8.11754 7.73812 7.41884 7.78153 6.81249 7.91338V5.89878C7.51162 5.81074 8.21032 5.76734 8.81623 5.72352V5.37302C8.81623 4.76004 8.8624 4.05943 8.49041 3.53408C8.16414 3.09595 7.55823 2.87688 6.99936 2.87688H6.81249V0.205488H7.37005C8.67466 0.205488 10.3495 0.557634 11.4211 1.47485C12.7257 2.61318 12.5841 4.1446 12.5841 5.80992V9.7519C12.5841 10.9353 13.0981 11.4594 13.6078 12.0728C13.7472 12.2898 13.7951 12.5543 13.5612 12.7279C13.0489 13.1661 12.071 13.9543 11.5113 14.392C11.3248 14.5235 11.0918 14.5235 10.8592 14.4358C9.97405 13.7352 9.83422 13.4285 9.32196 12.7718C8.4438 13.6509 7.69849 14.13 6.81423 14.3941H6.81249ZM18.8794 14.4383H16.1774C15.8977 14.3945 15.7113 14.2192 15.7113 14.0006V1.08094C15.7113 0.818057 15.9448 0.5994 16.2244 0.5994H18.6929C18.9726 0.5994 19.207 0.816419 19.207 1.03712V2.74503H19.2536C19.9061 1.08094 21.117 0.33611 22.795 0.33611C24.4716 0.33611 25.5436 1.08135 26.2885 2.74503C26.9405 1.08094 28.3845 0.33611 29.9688 0.33611C31.1336 0.33611 32.3472 0.774244 33.092 1.7365C33.9306 2.82979 33.789 4.40625 33.789 5.8091V13.9551C33.789 14.218 33.5559 14.4371 33.2301 14.4371H30.5743C30.2946 14.3933 30.1082 14.218 30.1082 13.9551V7.12432C30.1082 6.59897 30.1548 5.19735 30.015 4.71581C29.8285 3.83955 29.2231 3.57708 28.4312 3.57708C27.7786 3.57708 27.1265 3.97099 26.8469 4.62942C26.5677 5.28621 26.5677 6.38113 26.5677 7.12555V13.9576C26.5677 14.2205 26.3342 14.4395 26.055 14.4395H23.3525C23.1199 14.3957 22.8869 14.2205 22.8869 13.9576V7.12432C22.8869 5.6793 23.1199 3.53326 21.2564 3.53326C19.3002 3.53326 19.3925 5.63549 19.3925 7.12432V13.9564C19.391 14.0837 19.3366 14.2054 19.2409 14.2955C19.1451 14.3855 19.0157 14.4368 18.8803 14.4383H18.8794ZM6.81249 0.205078V2.87688C5.88118 2.96451 5.04266 3.44604 4.80961 4.40953C4.763 4.6286 4.62318 4.84725 4.34352 4.89148L1.73474 4.58478C1.54874 4.54097 1.26908 4.40953 1.3623 4.05902C1.92117 1.30123 4.43587 0.334881 6.81423 0.205078H6.81249ZM6.81249 5.89878V7.91297C5.69475 8.21925 4.80961 8.87604 4.80961 10.2773C4.80961 11.3705 5.41509 12.1158 6.43875 12.1166C6.57814 12.1166 6.71796 12.0732 6.81074 12.0732V14.3941C6.18655 14.5424 5.54492 14.616 4.90109 14.6131C2.66474 14.6131 0.89447 13.2996 0.89447 10.715C0.89447 8.65698 2.05926 7.25536 3.78291 6.59856C4.66979 6.2026 5.74266 6.03063 6.81423 5.89837L6.81249 5.89878Z" fill="#252A3F"/>
</svg>
