<svg width="375" height="604" viewBox="0 0 375 604" fill="none" xmlns="http://www.w3.org/2000/svg">
<path fill-rule="evenodd" clip-rule="evenodd" d="M15.0683 50.4752C42.9231 50.4752 66.2686 73.8207 66.2686 101.675C66.2686 129.531 42.9277 152.87 15.0683 152.87C-12.792 152.87 -36.1263 129.536 -36.1263 101.675C-36.1263 73.8161 -12.7874 50.4752 15.0683 50.4752ZM15.0683 13.1829C63.5191 13.1829 103.561 53.2247 103.561 101.675C103.561 150.132 63.5191 190.162 15.0683 190.162C-33.388 190.162 -73.4186 150.132 -73.4186 101.675C-73.4186 53.2247 -33.388 13.1829 15.0683 13.1829Z" fill="url(#paint0_linear_48_6424)"/>
<path fill-rule="evenodd" clip-rule="evenodd" d="M537.547 60.8574C546.628 89.9972 551.532 121.018 551.532 153.253C551.532 324.523 412.69 463.365 241.42 463.365C205.712 463.365 171.487 457.347 139.654 446.294C130.573 417.154 125.669 386.133 125.669 353.898C125.669 182.628 264.511 43.7863 435.781 43.7863C471.49 43.7863 505.715 49.8044 537.547 60.8574ZM105.405 479.462C90.5678 440.445 82.4438 398.121 82.4438 353.898C82.4438 158.756 240.638 0.561035 435.781 0.561035C483.983 0.561035 529.93 10.213 571.796 27.6895C586.633 66.7059 594.757 109.031 594.757 153.253C594.757 348.396 436.563 506.59 241.42 506.59C193.218 506.59 147.271 496.938 105.405 479.462Z" fill="url(#paint1_linear_48_6424)"/>
<path fill-rule="evenodd" clip-rule="evenodd" d="M129.872 311.341C120.791 340.481 115.886 371.501 115.886 403.737C115.886 575.007 254.728 713.849 425.998 713.849C461.707 713.849 495.932 707.831 527.764 696.778C536.845 667.638 541.749 636.617 541.749 604.382C541.749 433.112 402.907 294.27 231.637 294.27C195.929 294.27 161.704 300.288 129.872 311.341ZM562.014 729.945C576.851 690.929 584.974 648.604 584.974 604.382C584.974 409.239 426.78 251.045 231.637 251.045C183.435 251.045 137.488 260.697 95.6221 278.173C80.7851 317.189 72.6611 359.514 72.6611 403.737C72.6611 598.879 230.856 757.074 425.998 757.074C474.2 757.074 520.148 747.422 562.014 729.945Z" fill="url(#paint2_linear_48_6424)"/>
<defs>
<linearGradient id="paint0_linear_48_6424" x1="-57.933" y1="13.1829" x2="115.431" y2="190.162" gradientUnits="userSpaceOnUse">
<stop stop-color="#DBF2D7"/>
<stop offset="1" stop-color="#B1DFC9"/>
</linearGradient>
<linearGradient id="paint1_linear_48_6424" x1="581.75" y1="30.7417" x2="35.4295" y2="426.484" gradientUnits="userSpaceOnUse">
<stop stop-color="#97DBB3" stop-opacity="0.16"/>
<stop offset="1" stop-color="#DDF0E7"/>
</linearGradient>
<linearGradient id="paint2_linear_48_6424" x1="639.054" y1="791.747" x2="96.2689" y2="280.088" gradientUnits="userSpaceOnUse">
<stop stop-color="#EEEFAD"/>
<stop offset="1" stop-color="#E0F0E9"/>
</linearGradient>
</defs>
</svg>
