<svg width="25" height="24" viewBox="0 0 25 24" fill="none" xmlns="http://www.w3.org/2000/svg">
<path d="M12.1582 2.04004C6.6582 2.04004 2.1582 6.53004 2.1582 12.06C2.1582 17.06 5.8182 21.21 10.5982 21.96V14.96H8.0582V12.06H10.5982V9.85004C10.5982 7.34004 12.0882 5.96004 14.3782 5.96004C15.4682 5.96004 16.6082 6.15004 16.6082 6.15004V8.62004H15.3482C14.1082 8.62004 13.7182 9.39004 13.7182 10.18V12.06H16.4982L16.0482 14.96H13.7182V21.96C16.0746 21.5879 18.2204 20.3856 19.7681 18.5701C21.3159 16.7546 22.1636 14.4457 22.1582 12.06C22.1582 6.53004 17.6582 2.04004 12.1582 2.04004Z" fill="#242D3C"/>
</svg>
