<svg width="63" height="20" viewBox="0 0 63 20" fill="none" xmlns="http://www.w3.org/2000/svg">
<path d="M8.91746 15.0383C11.2513 15.0383 13.0099 14.3267 14.3866 12.9897C15.8038 11.6676 16.2438 9.81671 16.2438 8.31932C16.2438 7.85436 16.2055 7.42802 16.129 7.07001H8.91746V9.06653H14.0439C13.8908 10.1896 13.4875 11.0096 12.8779 11.58C12.1306 12.2737 10.965 13.0417 8.91746 13.0417C5.76155 13.0417 3.29336 10.6709 3.29336 7.72957C3.29336 4.78828 5.76155 2.41593 8.91746 2.41593C10.6187 2.41593 11.8642 3.04133 12.7808 3.8435L14.2926 2.43524C13.0099 1.29586 11.3087 0.420898 8.91746 0.420898C4.59337 0.420898 0.959229 3.6994 0.959229 7.72957C0.959229 11.7583 4.59337 15.0383 8.91746 15.0383ZM22.0799 15.0383C24.8712 15.0383 27.1476 13.0417 27.1476 10.3307C27.1476 7.60479 24.8712 5.6261 22.0799 5.6261C19.2838 5.6261 17.0074 7.60479 17.0074 10.3307C17.0074 13.0417 19.2838 15.0383 22.0799 15.0383ZM22.0799 13.1843C20.5479 13.1843 19.2264 12.0078 19.2264 10.3307C19.2264 8.6387 20.5479 7.4815 22.0799 7.4815C23.6087 7.4815 24.9286 8.6387 24.9286 10.3307C24.9286 12.0078 23.6087 13.1843 22.0799 13.1843V13.1843ZM33.1352 15.0383C35.9281 15.0383 38.2045 13.0417 38.2045 10.3307C38.2045 7.60479 35.9281 5.6261 33.1352 5.6261C30.3407 5.6261 28.0643 7.60479 28.0643 10.3307C28.0643 13.0417 30.3407 15.0383 33.1352 15.0383ZM33.1352 13.1843C31.6048 13.1843 30.2833 12.0078 30.2833 10.3307C30.2833 8.6387 31.6048 7.4815 33.1352 7.4815C34.6656 7.4815 35.9855 8.6387 35.9855 10.3307C35.9855 12.0078 34.6656 13.1843 33.1352 13.1843V13.1843ZM44.0008 19.263C46.6008 19.263 48.8039 17.8384 48.8039 14.3609V5.91132H46.6981V6.67784H46.6216C46.1226 6.12523 45.1661 5.6261 43.9641 5.6261C41.4374 5.6261 39.1244 7.69392 39.1244 10.35C39.1244 12.9897 41.4374 15.0383 43.9641 15.0383C45.1661 15.0383 46.1226 14.5391 46.6216 13.9687H46.6981V14.6461C46.6981 16.448 45.6651 17.4091 44.0008 17.4091C42.6442 17.4091 41.8009 16.5015 41.455 15.732L39.5245 16.4822C40.0808 17.7315 41.5522 19.263 44.0008 19.263V19.263ZM44.1523 13.1843C42.6235 13.1843 41.3402 11.9915 41.3402 10.35C41.3402 8.69218 42.6235 7.4815 44.1523 7.4815C45.6651 7.4815 46.8511 8.69218 46.8511 10.35C46.8511 11.9915 45.6651 13.1843 44.1523 13.1843ZM52.5517 0.920028H50.3327V14.753H52.5517V0.920028ZM58.635 15.0383C60.948 15.0383 62.2887 13.7206 62.8435 12.9526L61.1202 11.8845C60.5479 12.6659 59.7636 13.1843 58.635 13.1843C57.5063 13.1843 56.7013 12.703 56.1864 11.7583L62.9391 9.15417L62.7096 8.62088C62.2887 7.56914 61.0054 5.6261 58.3863 5.6261C55.7846 5.6261 53.623 7.53497 53.623 10.3307C53.623 12.9704 55.7655 15.0383 58.635 15.0383V15.0383ZM55.8229 10.1896C55.7655 8.3728 57.3341 7.44436 58.4628 7.44436C59.3427 7.44436 60.0888 7.85436 60.3391 8.44262L55.8229 10.1896Z" fill="#252A3F"/>
</svg>
