<svg width="25" height="24" viewBox="0 0 25 24" fill="none" xmlns="http://www.w3.org/2000/svg">
<path d="M7.9582 2H16.3582C19.5582 2 22.1582 4.6 22.1582 7.8V16.2C22.1582 17.7383 21.5471 19.2135 20.4594 20.3012C19.3717 21.3889 17.8965 22 16.3582 22H7.9582C4.7582 22 2.1582 19.4 2.1582 16.2V7.8C2.1582 6.26174 2.76927 4.78649 3.85698 3.69878C4.94469 2.61107 6.41995 2 7.9582 2ZM7.7582 4C6.80342 4 5.88775 4.37928 5.21262 5.05442C4.53749 5.72955 4.1582 6.64522 4.1582 7.6V16.4C4.1582 18.39 5.7682 20 7.7582 20H16.5582C17.513 20 18.4287 19.6207 19.1038 18.9456C19.7789 18.2705 20.1582 17.3548 20.1582 16.4V7.6C20.1582 5.61 18.5482 4 16.5582 4H7.7582ZM17.4082 5.5C17.7397 5.5 18.0577 5.6317 18.2921 5.86612C18.5265 6.10054 18.6582 6.41848 18.6582 6.75C18.6582 7.08152 18.5265 7.39946 18.2921 7.63388C18.0577 7.8683 17.7397 8 17.4082 8C17.0767 8 16.7587 7.8683 16.5243 7.63388C16.2899 7.39946 16.1582 7.08152 16.1582 6.75C16.1582 6.41848 16.2899 6.10054 16.5243 5.86612C16.7587 5.6317 17.0767 5.5 17.4082 5.5ZM12.1582 7C13.4843 7 14.7561 7.52678 15.6937 8.46447C16.6314 9.40215 17.1582 10.6739 17.1582 12C17.1582 13.3261 16.6314 14.5979 15.6937 15.5355C14.7561 16.4732 13.4843 17 12.1582 17C10.8321 17 9.56035 16.4732 8.62267 15.5355C7.68499 14.5979 7.1582 13.3261 7.1582 12C7.1582 10.6739 7.68499 9.40215 8.62267 8.46447C9.56035 7.52678 10.8321 7 12.1582 7ZM12.1582 9C11.3626 9 10.5995 9.31607 10.0369 9.87868C9.47427 10.4413 9.1582 11.2044 9.1582 12C9.1582 12.7956 9.47427 13.5587 10.0369 14.1213C10.5995 14.6839 11.3626 15 12.1582 15C12.9539 15 13.7169 14.6839 14.2795 14.1213C14.8421 13.5587 15.1582 12.7956 15.1582 12C15.1582 11.2044 14.8421 10.4413 14.2795 9.87868C13.7169 9.31607 12.9539 9 12.1582 9Z" fill="#242D3C"/>
</svg>
