<svg width="76" height="36" viewBox="0 0 76 36" fill="none" xmlns="http://www.w3.org/2000/svg">
<path d="M25.635 8.62061H8.59732C7.55709 8.62061 6.71387 9.41473 6.71387 10.3944V26.4327C6.71387 27.4197 7.55709 28.2139 8.59732 28.2139H25.6272C26.6674 28.2139 27.5106 27.4197 27.5106 26.4401V10.3944C27.5185 9.41473 26.6753 8.62061 25.635 8.62061V8.62061Z" fill="#252A3F"/>
<path d="M35.927 23.8274H37.9208V15.6487H35.927V23.8274ZM43.2008 18.9959C42.1842 18.6842 41.2385 18.4393 41.2385 17.8455V17.8159C41.2385 17.3335 41.6798 16.9921 42.46 16.9921C42.8383 16.9921 43.2559 17.0737 43.6972 17.2147C43.6972 17.2147 43.7051 17.2147 43.713 17.2221C43.7524 17.237 43.7918 17.2518 43.8233 17.2592C44.1385 17.3557 44.9896 17.4819 45.7068 16.428C44.7769 15.864 43.5948 15.5077 42.5073 15.5077C40.7814 15.5077 39.4102 16.4503 39.4102 18.0014V18.0311C39.4102 19.5971 40.8445 20.0943 42.129 20.4357C43.1456 20.7326 44.0676 20.9478 44.0676 21.5787V21.6083C44.0676 22.1501 43.5711 22.4915 42.72 22.4915C42.1526 22.4915 41.5301 22.3505 40.9075 22.0759C40.7263 22.0017 39.7964 21.7048 39.0083 22.7735C40.0879 23.5677 41.4513 23.9833 42.6728 23.9833C44.4853 23.9833 45.8959 23.1298 45.8959 21.408V21.3857C45.8959 19.9088 44.4695 19.367 43.2008 18.9959ZM30.4973 21.6603L28.1568 15.6487H26.0212L29.5911 23.8942H31.3878L34.942 15.6487H32.8536L30.4973 21.6603ZM55.1477 15.478C52.484 15.478 50.506 17.4151 50.506 19.7678C50.506 22.1056 52.4604 24.013 55.1161 24.013C57.7955 24.013 59.7735 22.0759 59.7735 19.7381C59.7735 17.3854 57.8113 15.478 55.1477 15.478ZM55.1477 22.3876C53.6031 22.3876 52.4998 21.1927 52.4998 19.7381C52.4998 18.2983 53.5164 17.1182 55.1161 17.1182C56.6765 17.1182 57.7798 18.3131 57.7798 19.7678C57.7798 21.215 56.7553 22.3876 55.1477 22.3876ZM65.6761 15.478C64.3285 15.478 63.5168 16.146 62.9573 16.9178V15.6487H60.9635V23.8349H62.9573V19.2186C62.9573 17.9495 63.7611 17.185 64.9195 17.185C66.1016 17.185 66.7793 17.9123 66.7793 19.1815V23.8274H68.7731V18.6174C68.7731 16.7174 67.6383 15.478 65.6761 15.478ZM47.212 23.8274H49.2057V15.6487H47.212V23.8274Z" fill="#252A3F"/>
<path d="M13.6646 14.2483C14.358 14.2483 14.9333 13.7362 14.9333 13.0682C14.9333 12.4003 14.3502 11.8882 13.6646 11.8882C12.9711 11.8882 12.3958 12.4003 12.3958 13.0682C12.3958 13.7362 12.9789 14.2483 13.6646 14.2483ZM11.0325 20.5641C10.9615 20.861 10.9221 21.1876 10.9221 21.4473C10.9221 22.4864 11.521 23.1766 12.7898 23.1766C13.8458 23.1766 14.6969 22.5903 15.3116 21.6329L14.9333 23.0504H17.0295L18.2274 18.5306C18.5268 17.3877 19.1021 16.7939 19.9847 16.7939C20.6782 16.7939 21.1038 17.2021 21.1038 17.8701C21.1038 18.063 21.088 18.2783 21.0092 18.5009L20.3945 20.579C20.3 20.8758 20.2606 21.1801 20.2606 21.4622C20.2606 22.4492 20.8752 23.1692 22.1677 23.1692C23.2709 23.1692 24.1457 22.5012 24.6343 20.8981L23.8147 20.6012C23.4049 21.6774 23.0503 21.8704 22.7666 21.8704C22.4829 21.8704 22.3331 21.6922 22.3331 21.3434C22.3331 21.1876 22.3725 21.0094 22.4277 20.7942L23.0266 18.7681C23.1764 18.2931 23.2315 17.8701 23.2315 17.4841C23.2315 15.9701 22.2622 15.1834 21.0801 15.1834C19.9769 15.1834 18.8578 16.1185 18.2983 17.1056L18.7081 15.3393H15.5086L15.0594 16.8978H16.5567L15.6347 20.3712C14.9097 21.8852 13.5857 21.9075 13.4203 21.8778C13.1444 21.8184 12.9711 21.7219 12.9711 21.3879C12.9711 21.195 13.0105 20.9204 13.105 20.579L14.5078 15.3393H10.9536L10.5045 16.8978H11.9781L11.0325 20.5641Z" fill="white"/>
</svg>
