<svg width="62" height="18" viewBox="0 0 62 18" fill="none" xmlns="http://www.w3.org/2000/svg">
<path d="M50.0906 14.2393H13.0035L15.9723 17.0143L50.0906 14.2393Z" fill="#252A3F"/>
<path d="M16.4597 3.09812V3.5123C15.7507 3.09812 15.1747 2.84961 14.2885 2.84961C11.6742 2.84961 9.72461 5.04476 9.72461 7.77834C9.72461 10.5119 11.7185 12.7071 14.2885 12.7071C15.1304 12.7071 15.7507 12.4586 16.4597 12.0444V12.4586H18.7194V3.09812H16.4597ZM14.2885 10.4705C13.0035 10.4705 12.073 9.3108 12.073 7.81976C12.073 6.32871 13.0035 5.16901 14.2885 5.16901C15.5735 5.16901 16.4597 6.32871 16.4597 7.81976C16.504 9.26938 15.5735 10.4705 14.2885 10.4705Z" fill="#252A3F"/>
<path d="M34.7152 3.09766V8.60624C34.7152 9.64169 33.9619 10.5115 32.8542 10.5115C31.7464 10.5115 30.9932 9.64169 30.9932 8.60624V3.09766H28.6891V8.60624C28.6891 10.8842 30.3285 12.7066 32.7656 12.7066C33.8733 12.7066 34.7152 12.1268 34.7152 12.1268V12.4581H36.975V3.09766H34.7152Z" fill="#252A3F"/>
<path d="M55.9835 12.5V6.94998C55.9835 5.91453 56.7368 5.04476 57.8445 5.04476C58.9523 5.04476 59.7055 5.91453 59.7055 6.94998V12.4586H62.0096V6.94998C62.0096 4.672 60.3702 2.84961 57.9332 2.84961C56.8254 2.84961 55.9835 3.42946 55.9835 3.42946V3.09812H53.7238V12.5H55.9835Z" fill="#252A3F"/>
<path d="M3.16664 12.4995V8.85472H4.8504L7.77483 12.4995H10.7436L7.19881 8.1092C8.30654 7.36368 9.0155 6.16256 9.0155 4.79577C9.0155 2.5592 7.06588 0.736816 4.67316 0.736816H0.773926V12.4581H3.16664V12.4995ZM3.16664 2.97338H4.71747C5.7809 2.97338 6.66709 3.80174 6.66709 4.79577C6.66709 5.7898 5.7809 6.61816 4.71747 6.61816H3.16664V2.97338Z" fill="#252A3F"/>
<path d="M43.1782 10.2629C42.9567 10.3872 42.7351 10.5114 42.425 10.5114C42.0705 10.5114 41.3615 10.2629 41.3615 9.35174V5.3342H43.3112V3.09764H41.3615V0.736816H39.1018V3.09764H37.9054V5.3342H39.1018V9.39316C39.1018 11.5055 40.7855 12.748 42.5136 12.748C43.1339 12.748 44.0201 12.5409 44.7291 12.1682L43.1782 10.2629Z" fill="#252A3F"/>
<path d="M24.3909 7.48785L28.3345 3.09755H25.1442L22.397 6.36957V-0.00878906H20.0486V12.4994H22.397V8.64755L25.7645 12.4994H28.9548L24.3909 7.48785Z" fill="#252A3F"/>
<path d="M48.451 2.84961C45.7924 2.84961 43.9314 5.00334 43.9314 7.77834C43.9314 10.6776 46.3241 12.7071 48.6725 12.7071C49.8689 12.7071 51.4197 12.3343 52.7047 10.5948L50.7108 9.51789C49.1599 11.6716 46.5457 10.5948 46.2355 8.44103H52.7933C53.3693 5.08618 51.0209 2.84961 48.451 2.84961ZM50.4449 6.57722H46.3241C46.8115 4.38207 50.0018 4.25782 50.4449 6.57722Z" fill="#252A3F"/>
</svg>
