<svg width="130" height="33" viewBox="0 0 130 33" fill="none" xmlns="http://www.w3.org/2000/svg">
<path d="M14.8345 7.53904V26.952H11.6949V25.1468C11.1542 25.8096 10.4827 26.3067 9.68033 26.6381C8.89544 26.9695 8.02334 27.1352 7.06403 27.1352C5.72099 27.1352 4.50877 26.8387 3.42736 26.2456C2.3634 25.6526 1.52618 24.8154 0.915707 23.734C0.305236 22.6351 0 21.3793 0 19.9665C0 18.5537 0.305236 17.3066 0.915707 16.2252C1.52618 15.1438 2.3634 14.3066 3.42736 13.7135C4.50877 13.1205 5.72099 12.824 7.06403 12.824C7.98845 12.824 8.83439 12.981 9.60184 13.2949C10.3693 13.6089 11.0234 14.0798 11.5641 14.7077V7.53904H14.8345ZM7.45647 24.3357C8.24136 24.3357 8.94776 24.1613 9.57568 23.8125C10.2036 23.4462 10.7007 22.9316 11.067 22.2688C11.4333 21.606 11.6164 20.8386 11.6164 19.9665C11.6164 19.0944 11.4333 18.3269 11.067 17.6641C10.7007 17.0013 10.2036 16.4955 9.57568 16.1467C8.94776 15.7804 8.24136 15.5973 7.45647 15.5973C6.67158 15.5973 5.96518 15.7804 5.33726 16.1467C4.70935 16.4955 4.21225 17.0013 3.84597 17.6641C3.47969 18.3269 3.29655 19.0944 3.29655 19.9665C3.29655 20.8386 3.47969 21.606 3.84597 22.2688C4.21225 22.9316 4.70935 23.4462 5.33726 23.8125C5.96518 24.1613 6.67158 24.3357 7.45647 24.3357Z" fill="#252A3F"/>
<path d="M24.7116 24.3619C26.2291 24.3619 27.4936 23.8561 28.5053 22.8444L30.232 24.859C29.6216 25.609 28.8367 26.1759 27.8773 26.5596C26.918 26.9433 25.8366 27.1352 24.6331 27.1352C23.0982 27.1352 21.7465 26.8299 20.5779 26.2195C19.4092 25.609 18.5023 24.7631 17.8569 23.6817C17.229 22.5828 16.915 21.3444 16.915 19.9665C16.915 18.606 17.2203 17.3851 17.8307 16.3037C18.4586 15.2048 19.3133 14.3502 20.3947 13.7397C21.4936 13.1292 22.7319 12.824 24.1099 12.824C25.418 12.824 26.6041 13.1118 27.668 13.6874C28.7494 14.2455 29.6041 15.0566 30.232 16.1205C30.8599 17.167 31.1739 18.3967 31.1739 19.8095L20.4732 21.9026C20.8046 22.7049 21.3366 23.3154 22.0691 23.734C22.8017 24.1526 23.6825 24.3619 24.7116 24.3619ZM24.1099 15.4403C22.9064 15.4403 21.9296 15.8327 21.1796 16.6176C20.447 17.4025 20.0808 18.4578 20.0808 19.7834V19.8095L27.982 18.2921C27.7553 17.4374 27.293 16.7484 26.5954 16.2252C25.9151 15.7019 25.0866 15.4403 24.1099 15.4403Z" fill="#252A3F"/>
<path d="M46.0954 12.981L40.1041 26.952H36.729L30.7377 12.981H34.1389L38.482 23.3415L42.9559 12.981H46.0954Z" fill="#252A3F"/>
<path d="M53.3551 24.3619C54.8725 24.3619 56.1371 23.8561 57.1487 22.8444L58.8755 24.859C58.265 25.609 57.4801 26.1759 56.5208 26.5596C55.5615 26.9433 54.4801 27.1352 53.2766 27.1352C51.7417 27.1352 50.3899 26.8299 49.2213 26.2195C48.0527 25.609 47.1457 24.7631 46.5003 23.6817C45.8724 22.5828 45.5585 21.3444 45.5585 19.9665C45.5585 18.606 45.8637 17.3851 46.4742 16.3037C47.1021 15.2048 47.9567 14.3502 49.0381 13.7397C50.137 13.1292 51.3754 12.824 52.7533 12.824C54.0615 12.824 55.2475 13.1118 56.3115 13.6874C57.3929 14.2455 58.2475 15.0566 58.8755 16.1205C59.5034 17.167 59.8173 18.3967 59.8173 19.8095L49.1166 21.9026C49.448 22.7049 49.98 23.3154 50.7126 23.734C51.4452 24.1526 52.326 24.3619 53.3551 24.3619ZM52.7533 15.4403C51.5498 15.4403 50.573 15.8327 49.823 16.6176C49.0905 17.4025 48.7242 18.4578 48.7242 19.7834V19.8095L56.6254 18.2921C56.3987 17.4374 55.9365 16.7484 55.2388 16.2252C54.5586 15.7019 53.7301 15.4403 52.7533 15.4403Z" fill="#252A3F"/>
<path d="M66.5175 27.1352C65.0698 27.1352 63.9361 26.7427 63.1163 25.9578C62.314 25.1555 61.9128 24.0305 61.9128 22.5828V7.53904H65.1832V22.3473C65.1832 23.7427 65.8373 24.4404 67.1454 24.4404C67.5815 24.4404 67.9739 24.3532 68.3228 24.1787L68.4798 26.7951C67.8693 27.0218 67.2152 27.1352 66.5175 27.1352Z" fill="#252A3F"/>
<path d="M75.6791 27.1352C74.2663 27.1352 72.993 26.8299 71.8593 26.2195C70.7256 25.609 69.836 24.7631 69.1907 23.6817C68.5627 22.5828 68.2488 21.3444 68.2488 19.9665C68.2488 18.5886 68.5627 17.3589 69.1907 16.2775C69.836 15.1961 70.7256 14.3502 71.8593 13.7397C72.993 13.1292 74.2663 12.824 75.6791 12.824C77.1093 12.824 78.3913 13.1292 79.5251 13.7397C80.6588 14.3502 81.5396 15.1961 82.1675 16.2775C82.8129 17.3589 83.1356 18.5886 83.1356 19.9665C83.1356 21.3444 82.8129 22.5828 82.1675 23.6817C81.5396 24.7631 80.6588 25.609 79.5251 26.2195C78.3913 26.8299 77.1093 27.1352 75.6791 27.1352ZM75.6791 24.3357C76.8826 24.3357 77.8768 23.9346 78.6617 23.1322C79.4466 22.3299 79.839 21.2746 79.839 19.9665C79.839 18.6583 79.4466 17.6031 78.6617 16.8008C77.8768 15.9984 76.8826 15.5973 75.6791 15.5973C74.4756 15.5973 73.4814 15.9984 72.6965 16.8008C71.929 17.6031 71.5453 18.6583 71.5453 19.9665C71.5453 21.2746 71.929 22.3299 72.6965 23.1322C73.4814 23.9346 74.4756 24.3357 75.6791 24.3357Z" fill="#252A3F"/>
<path d="M92.9606 12.824C94.3211 12.824 95.5333 13.1205 96.5973 13.7135C97.6787 14.3066 98.5246 15.1438 99.1351 16.2252C99.7455 17.3066 100.051 18.5537 100.051 19.9665C100.051 21.3793 99.7455 22.6351 99.1351 23.734C98.5246 24.8154 97.6787 25.6526 96.5973 26.2456C95.5333 26.8387 94.3211 27.1352 92.9606 27.1352C91.0769 27.1352 89.5856 26.5073 88.4867 25.2514V32.0277H85.2163V12.981H88.3297V14.8124C88.8704 14.1496 89.5332 13.6525 90.3181 13.3211C91.1205 12.9897 92.0013 12.824 92.9606 12.824ZM92.5943 24.3357C93.7978 24.3357 94.7833 23.9346 95.5507 23.1322C96.3356 22.3299 96.7281 21.2746 96.7281 19.9665C96.7281 18.6583 96.3356 17.6031 95.5507 16.8008C94.7833 15.9984 93.7978 15.5973 92.5943 15.5973C91.8094 15.5973 91.103 15.7804 90.4751 16.1467C89.8472 16.4955 89.3501 17.0013 88.9838 17.6641C88.6175 18.3269 88.4344 19.0944 88.4344 19.9665C88.4344 20.8386 88.6175 21.606 88.9838 22.2688C89.3501 22.9316 89.8472 23.4462 90.4751 23.8125C91.103 24.1613 91.8094 24.3357 92.5943 24.3357Z" fill="#252A3F"/>
<path d="M106.711 27.1352C105.263 27.1352 104.129 26.7427 103.309 25.9578C102.507 25.1555 102.106 24.0305 102.106 22.5828V7.53904H105.376V22.3473C105.376 23.7427 106.03 24.4404 107.338 24.4404C107.774 24.4404 108.167 24.3532 108.516 24.1787L108.673 26.7951C108.062 27.0218 107.408 27.1352 106.711 27.1352Z" fill="#252A3F"/>
<path d="M109.848 12.981H113.119V26.952H109.848V12.981ZM111.497 10.6786C110.904 10.6786 110.407 10.4955 110.005 10.1292C109.604 9.74546 109.404 9.27453 109.404 8.71638C109.404 8.15823 109.604 7.69602 110.005 7.32974C110.407 6.94601 110.904 6.75415 111.497 6.75415C112.09 6.75415 112.587 6.93729 112.988 7.30357C113.389 7.65242 113.59 8.09719 113.59 8.63789C113.59 9.21348 113.389 9.70185 112.988 10.103C112.604 10.4867 112.107 10.6786 111.497 10.6786Z" fill="#252A3F"/>
<path d="M125.366 0.210134V0.211447C125.633 0.211447 125.898 0.220787 126.159 0.241072C126.244 0.246763 126.329 0.254206 126.414 0.263108C126.523 0.274345 126.631 0.287041 126.739 0.301487C126.8 0.308929 126.859 0.318269 126.918 0.326295H126.931C126.977 0.331841 127.022 0.341035 127.068 0.348185C127.099 0.353877 127.129 0.357671 127.159 0.363071C127.251 0.379853 127.344 0.39649 127.436 0.414731C127.564 0.440707 127.691 0.469163 127.817 0.499517C127.83 0.503166 127.846 0.505063 127.859 0.508711C127.88 0.514256 127.9 0.518051 127.919 0.523742L127.932 0.527244C128.088 0.566647 128.242 0.60955 128.395 0.655666C128.453 0.672448 128.51 0.691128 128.567 0.709078C128.613 0.723963 128.657 0.738557 128.703 0.753879C128.736 0.76497 128.77 0.776061 128.803 0.788028C128.816 0.79153 128.824 0.795324 128.835 0.799119C128.848 0.802767 128.86 0.808458 128.872 0.811961C128.924 0.83064 128.977 0.84932 129.028 0.868436C129.041 0.872231 129.05 0.877776 129.061 0.881425C129.083 0.890911 129.105 0.898353 129.127 0.907839C129.169 0.924621 129.211 0.939798 129.253 0.956435C129.486 1.53711 129.668 2.14344 129.794 2.76981C129.929 3.43891 130 4.13035 130 4.83826C129.704 9.2795 127.534 12.7913 123.678 14.7257C123.572 14.7772 123.465 14.827 123.358 14.8753C123.334 14.8848 123.311 14.8959 123.288 14.9059C123.183 14.9519 123.079 14.9964 122.973 15.0393C122.276 15.3223 121.545 15.5377 120.788 15.6772C120.775 15.6772 120.775 15.6829 120.768 15.6829C120.109 15.803 119.43 15.8662 118.737 15.8662V15.8605C118.545 15.8605 118.354 15.8549 118.165 15.8456C118.143 15.8456 118.121 15.84 118.099 15.84C118.054 15.8344 118.01 15.8344 117.966 15.8308C117.937 15.8308 117.91 15.8308 117.882 15.8252C117.79 15.8176 117.699 15.8103 117.608 15.8009C117.532 15.7933 117.457 15.7842 117.381 15.7758C117.363 15.7701 117.343 15.7701 117.325 15.7701C117.239 15.7591 117.152 15.7469 117.066 15.7344C116.879 15.7061 116.693 15.6738 116.509 15.6369C116.42 15.6182 116.331 15.5998 116.243 15.58C116.198 15.5705 116.154 15.559 116.109 15.5477C116.062 15.4586 116.015 15.3691 115.97 15.2785C115.97 15.2728 115.957 15.2654 115.957 15.2576C115.903 15.1476 115.851 15.0362 115.801 14.924C115.801 14.9147 115.788 14.9032 115.788 14.8929C115.741 14.7883 115.697 14.6831 115.654 14.5765C115.654 14.5693 115.654 14.5636 115.641 14.5558C115.408 13.9752 115.226 13.3691 115.1 12.7429C115.1 12.7299 115.1 12.715 115.087 12.7015C115.074 12.6686 115.074 12.6355 115.069 12.6027C115.056 12.5548 115.05 12.5069 115.043 12.4589C115.03 12.4221 115.03 12.3864 115.026 12.3499C115.013 12.3016 115.009 12.2536 115.003 12.205C115.003 12.1752 114.99 12.1453 114.99 12.1157C114.977 12.0608 114.973 12.0068 114.968 11.9518C114.968 11.9296 114.968 11.9069 114.955 11.8845C114.941 11.82 114.94 11.7557 114.934 11.6907V11.6719C114.903 11.3434 114.886 11.0108 114.886 10.6744C114.886 9.96623 114.957 9.27464 115.092 8.60569C115.092 8.58015 115.105 8.55505 115.109 8.52995C115.109 8.51098 115.122 8.4923 115.122 8.47348C115.122 8.44823 115.135 8.42167 115.138 8.39584C115.151 8.36198 115.155 8.32784 115.162 8.29427C115.175 8.24801 115.183 8.20189 115.195 8.15607C115.208 8.12367 115.211 8.09084 115.219 8.05829C115.219 8.0472 115.219 8.03567 115.232 8.02415C115.251 7.95424 115.269 7.88463 115.289 7.81532C115.302 7.77562 115.311 7.7352 115.324 7.69565C115.337 7.65756 115.347 7.61991 115.359 7.58211C115.359 7.56694 115.372 7.55191 115.372 7.53673C115.394 7.46697 115.417 7.39751 115.44 7.32877C115.453 7.29988 115.458 7.27098 115.469 7.24194C115.522 7.09047 115.577 6.94059 115.637 6.79248V6.78868C115.65 6.76723 115.656 6.74549 115.666 6.72374C115.804 6.38561 115.959 6.05595 116.13 5.73634C116.189 5.62529 116.252 5.51554 116.315 5.40697C117.162 3.95785 118.348 2.72982 119.764 1.83175C119.857 1.7725 119.951 1.71515 120.046 1.65926C120.063 1.64992 120.08 1.63868 120.097 1.62861C120.138 1.60541 120.179 1.58278 120.22 1.55973C120.281 1.52543 120.341 1.49026 120.403 1.45699C120.416 1.4513 120.427 1.444 120.44 1.43758C120.532 1.38826 120.626 1.34024 120.72 1.2934C120.74 1.2842 120.76 1.27413 120.778 1.26479C120.803 1.25181 120.829 1.24159 120.853 1.22962C120.933 1.19154 121.012 1.15301 121.093 1.11711C121.108 1.11142 121.123 1.10383 121.139 1.09712C121.236 1.0545 121.332 1.01335 121.43 0.973365C122.644 0.480412 123.971 0.208252 125.36 0.208252L125.366 0.210134ZM111.433 6.23689C112.727 6.23689 113.797 7.3057 113.797 8.5991C113.797 9.89266 112.727 10.9613 111.433 10.9613C110.139 10.9613 109.07 9.89266 109.07 8.5991C109.07 7.3057 110.139 6.23689 111.433 6.23689ZM128.99 12.0507C129.632 13.4051 129.994 14.9179 129.994 16.5144C129.994 17.2224 129.922 17.9142 129.788 18.583C129.662 19.2093 129.48 19.8152 129.247 20.396C129.183 20.4216 129.119 20.4464 129.055 20.4706C128.987 20.4962 128.919 20.521 128.851 20.5447C128.851 20.5504 128.838 20.5504 128.832 20.5504C128.819 20.556 128.808 20.5598 128.795 20.5634C128.734 20.5843 128.673 20.6052 128.612 20.6255C128.595 20.6311 128.58 20.6365 128.564 20.6422C128.521 20.6552 128.478 20.6692 128.435 20.6822C128.418 20.6879 128.403 20.6916 128.387 20.6973C128.246 20.7396 128.105 20.7787 127.962 20.8153C127.947 20.8209 127.933 20.8226 127.918 20.8264C127.899 20.8319 127.88 20.8357 127.86 20.8395C127.8 20.8544 127.741 20.8681 127.68 20.8821C127.599 20.9008 127.518 20.9186 127.436 20.9347C126.808 21.0611 126.161 21.1305 125.499 21.1387H125.367C125.284 21.1387 125.203 21.1387 125.122 21.133H125.052C124.991 21.133 124.93 21.1276 124.87 21.1257C124.847 21.1257 124.826 21.12 124.804 21.12C124.731 21.1146 124.657 21.1108 124.585 21.107H124.558C124.479 21.1015 124.401 21.0939 124.323 21.0862C124.299 21.0805 124.274 21.0805 124.249 21.0789C124.189 21.0732 124.129 21.0657 124.068 21.0583C124.049 21.0527 124.029 21.0527 124.008 21.0508C123.946 21.0414 123.882 21.0341 123.819 21.0244C123.8 21.0189 123.78 21.0189 123.761 21.0151C123.685 21.0021 123.609 20.9906 123.533 20.977C123.512 20.9713 123.491 20.9694 123.469 20.9637C123.413 20.9545 123.358 20.9433 123.303 20.9322C123.274 20.9265 123.244 20.9192 123.216 20.9135C123.159 20.9007 123.103 20.8892 123.046 20.8766C123.03 20.8709 123.011 20.869 122.993 20.8636C122.916 20.8449 122.839 20.8267 122.763 20.8071C122.748 20.8014 122.734 20.7995 122.72 20.7958C122.667 20.7828 122.613 20.7676 122.56 20.7527C122.447 20.7215 122.336 20.6885 122.224 20.6533C122.208 20.6479 122.191 20.6422 122.174 20.6368C122.076 20.605 121.979 20.5723 121.882 20.5379C121.86 20.5303 121.837 20.5211 121.816 20.5142C121.709 20.4753 121.602 20.4352 121.496 20.3927C121.475 20.3835 121.453 20.374 121.431 20.3663C121.337 20.3282 121.246 20.2894 121.154 20.2489C121.135 20.2416 121.117 20.2341 121.1 20.2253C120.995 20.1786 120.892 20.1299 120.79 20.08C120.769 20.0706 120.747 20.0585 120.726 20.0478C120.631 20.0009 120.537 19.9521 120.444 19.9025C120.431 19.8968 120.423 19.8911 120.413 19.8857C120.311 19.831 120.211 19.7738 120.111 19.7158C120.09 19.7046 120.07 19.6913 120.05 19.6795C119.953 19.6222 119.857 19.5638 119.762 19.5034V19.4978C119.661 19.4335 119.562 19.3675 119.463 19.2999C119.446 19.2887 119.432 19.2778 119.417 19.267C119.323 19.2019 119.23 19.1359 119.139 19.0679C119.139 19.0679 119.139 19.0622 119.126 19.0622C119.031 18.9916 118.937 18.9186 118.845 18.8448C118.83 18.8318 118.816 18.8214 118.801 18.81C118.616 18.661 118.437 18.5058 118.263 18.345C118.25 18.332 118.238 18.3213 118.225 18.3092C118.052 18.1472 117.884 17.9797 117.723 17.8062C117.71 17.7932 117.698 17.7799 117.686 17.7669C117.524 17.5925 117.369 17.413 117.221 17.2284C117.208 17.2154 117.198 17.201 117.187 17.1876C117.112 17.0936 117.038 16.9983 116.966 16.9015C116.896 16.8064 116.827 16.7098 116.759 16.6123C116.746 16.5993 116.741 16.586 116.733 16.5733C116.665 16.4748 116.599 16.3747 116.534 16.2739C116.534 16.2683 116.521 16.2607 116.521 16.2553C116.458 16.157 116.398 16.0572 116.339 15.9567C116.339 15.9474 116.326 15.9382 116.322 15.9298C116.261 15.824 116.201 15.7165 116.142 15.6083C116.142 15.6026 116.142 15.5972 116.129 15.5915C116.116 15.5766 116.112 15.56 116.104 15.5445L116.117 15.55C116.154 15.563 116.189 15.5779 116.225 15.5913C116.295 15.6169 116.363 15.6415 116.432 15.6662C116.445 15.6719 116.455 15.6754 116.467 15.6792C116.48 15.6847 116.491 15.6885 116.502 15.6922C116.556 15.711 116.61 15.7289 116.665 15.7465C116.684 15.7521 116.702 15.7597 116.721 15.7651C116.782 15.7854 116.844 15.8038 116.906 15.8229C116.929 15.8304 116.953 15.8361 116.977 15.8438C117.039 15.8625 117.1 15.8795 117.161 15.8965C117.181 15.9022 117.202 15.9076 117.223 15.9133C117.287 15.9319 117.351 15.9481 117.415 15.9639C117.437 15.9696 117.458 15.9751 117.48 15.9807C117.543 15.9954 117.607 16.0112 117.671 16.0258C117.759 16.0456 117.847 16.0652 117.936 16.0831C118.121 16.1202 118.306 16.1527 118.494 16.1809C118.58 16.1937 118.666 16.2056 118.752 16.2159C118.771 16.2216 118.79 16.2216 118.809 16.2216C118.884 16.2311 118.959 16.2403 119.035 16.2467C119.126 16.2562 119.218 16.2635 119.309 16.2709C119.338 16.2766 119.366 16.2766 119.393 16.2766C119.437 16.282 119.482 16.282 119.526 16.2858C119.548 16.2858 119.57 16.2915 119.593 16.2915C119.782 16.3007 119.973 16.3064 120.164 16.3064V16.312C120.858 16.312 121.536 16.2486 122.196 16.1284C122.209 16.1284 122.209 16.1227 122.216 16.1227C122.973 15.9833 123.704 15.7675 124.4 15.4845C124.506 15.4419 124.611 15.3974 124.715 15.3513C124.738 15.3421 124.762 15.3306 124.785 15.3203C124.892 15.272 124.999 15.2223 125.105 15.1706C126.623 14.4287 127.951 13.3559 128.995 12.0469L128.99 12.0507Z" fill="#252A3F"/>
</svg>
