<svg width="49" height="49" viewBox="0 0 49 49" fill="none" xmlns="http://www.w3.org/2000/svg">
<g style="mix-blend-mode:multiply">
<rect x="0.162598" y="0.592041" width="48" height="48" rx="15" fill="#ACDBC4"/>
</g>
<path d="M17.8675 20.2291C17.8675 20.307 17.8675 20.4628 17.8675 20.5407C16.4511 21.3977 15.5068 22.878 15.5068 24.592C15.5068 26.306 16.4511 27.7863 17.8675 28.6433C17.8675 28.7991 17.8675 28.877 17.8675 29.0328C17.8675 29.8119 18.1036 30.5131 18.5757 31.0585C19.2052 31.9155 20.2281 32.4608 21.4085 32.4608C21.7232 32.4608 21.9593 32.4608 22.274 32.3829C22.9036 32.2271 23.3757 31.6038 23.3757 30.9027V29.0328V20.2291V18.2813C23.3757 17.5801 22.9036 16.9569 22.274 16.8011C21.9593 16.7231 21.6445 16.7231 21.3298 16.7231C19.4413 16.7231 17.8675 18.2813 17.8675 20.2291Z" fill="#478F6C"/>
<path d="M32.8183 24.7494C32.8183 23.0182 31.8741 21.5231 30.4577 20.6576C30.4577 20.5789 30.4577 20.4215 30.4577 20.2641C30.4577 18.2969 28.8839 16.7231 26.9167 16.7231C26.6019 16.7231 26.3659 16.7231 26.0511 16.8018C25.3429 16.9592 24.9495 17.5887 24.9495 18.2969V20.1854V28.9986V30.8871C24.9495 31.5953 25.4216 32.2248 26.0511 32.3822C26.2872 32.4608 26.6019 32.4608 26.9167 32.4608C28.8839 32.4608 30.4577 30.8871 30.4577 28.9199C30.4577 28.8412 30.4577 28.6838 30.4577 28.6051C31.9527 27.9756 32.8183 26.4805 32.8183 24.7494Z" fill="#478F6C"/>
</svg>
