<svg width="49" height="19" viewBox="0 0 49 19" fill="none" xmlns="http://www.w3.org/2000/svg">
<path d="M48.2033 9.51678C48.2033 6.38263 46.567 3.90976 43.4283 3.90976C40.2895 3.90976 38.378 6.38263 38.378 9.49611C38.378 13.1813 40.6317 14.8827 43.8448 14.8827C45.4216 14.8827 46.6042 14.5521 47.5042 14.0906V11.7899C46.6042 12.2101 45.5704 12.4649 44.2613 12.4649C42.9746 12.4649 41.844 12.0448 41.6953 10.612H48.1587C48.1736 10.4536 48.2033 9.81297 48.2033 9.51678V9.51678ZM41.6655 8.35955C41.6655 6.98191 42.5804 6.4033 43.406 6.4033C44.2167 6.4033 45.0795 6.98191 45.0795 8.35955H41.6655ZM33.2683 3.90976C31.9741 3.90976 31.1411 4.47459 30.6799 4.86722L30.5089 4.10952H27.6007V18.2166L30.9031 17.5691L30.9105 14.1112C31.3865 14.435 32.0931 14.8827 33.246 14.8827C35.6112 14.8827 37.7681 13.2846 37.7681 9.39968C37.7756 5.84535 35.5889 3.90976 33.2683 3.90976V3.90976ZM32.4799 12.3478C31.7063 12.3478 31.2452 12.0861 30.9254 11.7692L30.9031 7.223C31.2452 6.8717 31.7212 6.61683 32.4799 6.61683C33.6848 6.61683 34.5178 7.87049 34.5178 9.46856C34.5253 11.1148 33.7071 12.3478 32.4799 12.3478ZM26.366 0.0385742V2.53211L23.0488 3.18649V0.692956L26.366 0.0385742ZM23.0562 4.1164H26.3735V14.6692H23.0562V4.1164ZM19.501 5.01876C20.2745 3.70311 21.8141 3.97175 22.2604 4.1164V6.9268C21.8364 6.80281 20.5199 6.61683 19.739 7.56741V14.6692H16.444V4.1164H19.3001L19.501 5.01876V5.01876ZM12.8813 4.1164H15.3879V6.72016H12.8813V11.0735C12.8813 12.8782 14.9639 12.3134 15.3879 12.155V14.4832C14.949 14.7036 14.1532 14.8896 13.0673 14.8896C11.1111 14.8896 9.63847 13.7186 9.63847 11.907L9.65334 2.09815L12.8739 1.46444L12.8813 4.1164V4.1164ZM3.94113 7.223C3.94113 8.60064 8.99138 7.94626 8.99138 11.5901C8.99138 13.7944 7.10219 14.8827 4.35765 14.8827C3.21967 14.8827 1.97756 14.6761 0.750327 14.187V11.4317C1.85855 11.9896 3.27173 12.4098 4.36508 12.4098C5.10142 12.4098 5.62951 12.2239 5.62951 11.659C5.62951 10.1987 0.609009 10.7498 0.609009 7.36076C0.609009 5.19786 2.39407 3.90287 5.07167 3.90287C6.16503 3.90287 7.25838 4.0613 8.35173 4.46082V7.3401C7.34763 6.83726 6.06834 6.55484 5.06424 6.55484C4.37252 6.56173 3.94113 6.74771 3.94113 7.223" fill="#252A3F"/>
</svg>
