<svg width="25" height="24" viewBox="0 0 25 24" fill="none" xmlns="http://www.w3.org/2000/svg">
<path d="M22.6182 6C21.8482 6.35 21.0182 6.58 20.1582 6.69C21.0382 6.16 21.7182 5.32 22.0382 4.31C21.2082 4.81 20.2882 5.16 19.3182 5.36C18.5282 4.5 17.4182 4 16.1582 4C13.8082 4 11.8882 5.92 11.8882 8.29C11.8882 8.63 11.9282 8.96 11.9982 9.27C8.43824 9.09 5.26824 7.38 3.15824 4.79C2.78824 5.42 2.57824 6.16 2.57824 6.94C2.57824 8.43 3.32824 9.75 4.48824 10.5C3.77824 10.5 3.11824 10.3 2.53824 10V10.03C2.53824 12.11 4.01824 13.85 5.97824 14.24C5.34897 14.4122 4.68834 14.4362 4.04824 14.31C4.31985 15.1625 4.85178 15.9084 5.56926 16.4429C6.28674 16.9775 7.15369 17.2737 8.04824 17.29C6.53187 18.4904 4.65224 19.1393 2.71824 19.13C2.37824 19.13 2.03824 19.11 1.69824 19.07C3.59824 20.29 5.85824 21 8.27824 21C16.1582 21 20.4882 14.46 20.4882 8.79C20.4882 8.6 20.4882 8.42 20.4782 8.23C21.3182 7.63 22.0382 6.87 22.6182 6Z" fill="#242D3C"/>
</svg>
