<svg width="87" height="26" viewBox="0 0 87 26" fill="none" xmlns="http://www.w3.org/2000/svg">
<path d="M23.5928 16.3777C22.1898 16.3777 20.8751 15.7796 19.6806 14.8061L19.9715 13.4318L19.9841 13.3809C20.2431 11.9176 21.0648 9.46148 23.5928 9.46148C25.4887 9.46148 27.0309 11.014 27.0309 12.9227C27.0245 14.8251 25.4825 16.3777 23.5928 16.3777ZM23.5928 5.95577C20.3631 5.95577 17.8606 8.06816 16.8431 11.5421C15.2883 9.19429 14.1127 6.37574 13.4239 4.00244H9.94793V13.1072C9.94793 14.9015 8.4943 16.3648 6.71203 16.3648C4.92976 16.3648 3.4763 14.9015 3.4763 13.1072V4.00244H-5.19109e-05V13.1072C-0.0126981 16.8358 3.00198 19.8961 6.70545 19.8961C10.4091 19.8961 13.4238 16.8358 13.4238 13.1072V11.5803C14.0999 12.9991 14.9278 14.4306 15.9328 15.7032L13.8028 25.7814H17.3611L18.9031 18.4709C20.2556 19.3425 21.8104 19.8898 23.5926 19.8898C27.4035 19.8898 30.5067 16.7467 30.5067 12.91C30.5067 9.07971 27.4037 5.95577 23.5928 5.95577Z" fill="#252A3F"/>
<path d="M40.9916 6.3499L43.2352 15.4547L45.7064 6.3499H48.6514L44.8532 19.5077H41.908L39.5761 10.3455L37.2502 19.5012H34.3051L30.5066 6.34361H33.4518L35.9228 15.4484L38.1664 6.34361H40.9914L40.9916 6.3499ZM55.6982 5.95539C51.8747 5.95539 48.7779 9.07933 48.7779 12.9223C48.7779 16.7718 51.8809 19.8894 55.6982 19.8894C59.5219 19.8894 62.625 16.7718 62.625 12.9223C62.625 9.07305 59.5219 5.95539 55.6982 5.95539ZM55.6982 17.0262C53.4484 17.0262 51.6282 15.1938 51.6282 12.9288C51.6282 10.6636 53.4546 8.83132 55.6982 8.83132C57.9482 8.83132 59.7683 10.6636 59.7683 12.9288C59.7683 15.1875 57.9482 17.0262 55.6982 17.0262ZM71.0368 9.29576C69.0588 9.29576 67.4598 10.9118 67.4598 12.8969V19.5012H64.4956V6.3499H67.4598V8.37316C67.4598 8.37316 68.7238 6.34345 71.3213 6.34345H72.2313V9.29576H71.0368ZM80.9847 12.4134C83.089 11.2172 84.5175 8.94574 84.5175 6.34345H81.5532C81.5532 8.5385 79.7838 10.32 77.6034 10.32H77.2051V0H74.2412V19.5011H77.2051V13.3041H77.5592C77.8499 13.3041 78.2291 13.4951 78.3998 13.7304L82.6088 19.5012H86.1606L80.9847 12.4134Z" fill="#252A3F"/>
</svg>
