<svg width="49" height="49" viewBox="0 0 49 49" fill="none" xmlns="http://www.w3.org/2000/svg">
<g style="mix-blend-mode:multiply">
<rect x="0.986328" y="0.966064" width="48" height="48" rx="15" fill="#EAEDB6"/>
</g>
<path d="M32.7198 22.9577C32.5049 22.243 31.86 21.6712 31.1435 21.5998L28.1343 21.1709L26.773 18.3122C26.4148 17.526 25.7699 17.0972 24.9818 17.0972C24.1937 17.0972 23.5489 17.526 23.1906 18.2407L21.8293 21.0995L18.8201 21.5998C18.1036 21.7427 17.4588 22.243 17.2438 22.9577C16.9572 23.7438 17.1722 24.53 17.7454 25.1018L19.9664 27.3173L19.4649 30.462C19.3216 31.2481 19.6799 32.0343 20.3247 32.4631C20.6829 32.6775 21.0412 32.8205 21.4711 32.8205C21.8293 32.8205 22.1159 32.749 22.4025 32.6061L25.1251 31.1052L27.8477 32.6061C28.4926 32.9634 29.2807 32.8919 29.9255 32.4631C30.5704 32.0343 30.9286 31.2481 30.7853 30.462L30.2838 27.3173L32.5049 25.1018C32.7914 24.53 33.0064 23.6724 32.7198 22.9577Z" fill="#99A129"/>
</svg>
