<svg width="49" height="49" viewBox="0 0 49 49" fill="none" xmlns="http://www.w3.org/2000/svg">
<g style="mix-blend-mode:multiply">
<rect x="0.162598" y="0.424561" width="48" height="48" rx="15" fill="#FEE5A4"/>
</g>
<path d="M17.7107 31.5064C16.5304 31.5064 15.5074 30.4835 15.5074 29.3032V26.4704C15.5074 25.2114 16.5304 24.2671 17.7107 24.2671C18.9697 24.2671 19.914 25.29 19.914 26.4704V29.3032C19.914 30.4835 18.9697 31.5064 17.7107 31.5064Z" fill="#DD9F00"/>
<path d="M24.1632 31.5064C22.9042 31.5064 21.96 30.4835 21.96 29.3031V22.1425C21.96 20.8835 22.9829 19.9392 24.1632 19.9392C25.4223 19.9392 26.3665 20.9622 26.3665 22.1425V29.3031C26.3665 30.4835 25.4223 31.5064 24.1632 31.5064Z" fill="#DD9F00"/>
<path d="M30.6156 31.5063C29.3566 31.5063 28.4124 30.4834 28.4124 29.303V16.3981C28.4124 15.1391 29.4353 14.1948 30.6156 14.1948C31.796 14.1948 32.8189 15.2178 32.8189 16.3981V29.303C32.8189 30.4834 31.796 31.5063 30.6156 31.5063Z" fill="#DD9F00"/>
</svg>
