<svg width="81" height="16" viewBox="0 0 81 16" fill="none" xmlns="http://www.w3.org/2000/svg">
<path d="M53.859 13.0698C54.9312 13.0924 55.9694 12.7141 56.7473 12.0173L58.1792 13.4761C57.2335 14.3939 55.9221 15.0759 53.8836 15.0759C50.3886 15.0759 48.1293 12.8867 48.1293 9.92706C48.1151 9.24874 48.2459 8.57467 48.5137 7.94508C48.7816 7.31548 49.181 6.74326 49.6883 6.26254C50.1956 5.78182 50.8002 5.40245 51.4662 5.14708C52.1322 4.8917 52.8459 4.76555 53.5646 4.77614C57.035 4.77614 59.0022 7.26845 58.8282 10.7249H50.625C50.915 12.1605 51.9855 13.0761 53.8523 13.0761L53.859 13.0698ZM56.3503 9.07665C56.1273 7.73576 55.2797 6.74852 53.5847 6.74852C52.0078 6.74852 50.9083 7.59052 50.625 9.07665H56.3525H56.3503ZM-0.00366211 12.9583L6.3082 6.90429H0.145771V5.00558H9.23663V6.94218L2.92477 12.994H9.32585V14.8949H-0.00366211V12.9583ZM16.4116 13.0677C17.4838 13.0903 18.522 12.712 19.2999 12.0152L20.7318 13.474C19.7861 14.3918 18.4747 15.0738 16.4362 15.0738C12.9412 15.0738 10.6819 12.8846 10.6819 9.92496C10.6677 9.24664 10.7985 8.57257 11.0663 7.94297C11.3342 7.31338 11.7336 6.74115 12.2409 6.26043C12.7482 5.77971 13.3528 5.40035 14.0188 5.14497C14.6848 4.8896 15.3985 4.76344 16.1172 4.77403C19.5876 4.77403 21.5548 7.26635 21.3808 10.7228H13.1821C13.472 12.1584 14.5426 13.074 16.4094 13.074L16.4116 13.0677ZM18.9074 9.07454C18.6843 7.73366 17.8368 6.74641 16.1418 6.74641C14.5649 6.74641 13.4654 7.58841 13.1821 9.07454H18.9096H18.9074ZM35.0171 9.92285C35.0171 6.76536 37.5218 4.77824 40.2807 4.77824C40.9427 4.76993 41.5986 4.89847 42.2024 5.15484C42.8061 5.41121 43.3431 5.78919 43.7757 6.26226V0.427213H46.006V14.8675H43.7757V13.5056C43.3514 13.9981 42.8152 14.3942 42.2067 14.6646C41.5983 14.9349 40.9332 15.0726 40.2606 15.0675C37.5842 15.0675 35.0193 13.0677 35.0193 9.92496L35.0171 9.92285ZM43.9006 9.90391C43.883 9.28651 43.673 8.6877 43.2967 8.18237C42.9205 7.67705 42.3947 7.28764 41.7852 7.06285C41.1757 6.83806 40.5095 6.78788 39.8699 6.91858C39.2303 7.04927 38.6458 7.35505 38.1894 7.79765C37.733 8.24026 37.425 8.80005 37.3039 9.407C37.1828 10.014 37.254 10.6411 37.5086 11.2101C37.7632 11.779 38.19 12.2645 38.7354 12.6058C39.2808 12.947 39.9207 13.129 40.5751 13.1288C42.4932 13.1288 43.8983 11.6847 43.8983 9.90391H43.9006ZM60.2869 12.7667L62.3075 11.7774C62.5747 12.2268 62.9668 12.5989 63.4417 12.8534C63.9165 13.1079 64.4559 13.2351 65.0018 13.2214C66.2642 13.2214 66.9199 12.6109 66.9199 11.9163C66.9199 11.1248 65.6999 10.948 64.3728 10.6891C62.5886 10.3312 60.7307 9.77761 60.7307 7.74208C60.7307 6.17806 62.3075 4.73193 64.7899 4.75298C66.7459 4.75298 68.2023 5.48552 69.0276 6.66853L67.1541 7.63683C66.8953 7.27503 66.5429 6.98153 66.1304 6.7841C65.7179 6.58666 65.2588 6.49182 64.7966 6.50855C63.5967 6.50855 62.9856 7.06216 62.9856 7.69577C62.9856 8.40725 63.9535 8.60512 65.4702 8.92298C67.1964 9.28083 69.1502 9.81339 69.1502 11.87C69.1502 13.234 67.8879 15.0738 64.8992 15.0548C62.7135 15.0548 61.1745 14.2234 60.2891 12.7604L60.2869 12.7667ZM75.2101 10.4723L73.4414 12.2931V14.8612H71.2111V0.420898H73.4414V9.87865L78.1764 4.97401H80.893L76.7891 9.20505L81 14.8633H78.4753L75.2123 10.4723H75.2101ZM28.277 4.77614C25.6229 4.77614 23.4037 6.39698 23.4037 9.09138V14.8696H25.6787V9.35871C25.6787 7.73787 26.6667 6.76536 28.3551 6.76536C30.0435 6.76536 30.8821 7.73366 30.8821 9.35871V14.8696H33.1436V9.09138C33.1436 6.40119 30.9133 4.77614 28.2703 4.77614" fill="#252A3F"/>
</svg>
